<svg xmlns="http://www.w3.org/2000/svg" version="1.1" height="500" width="500">

  <!--Centre-->
  <circle cx="250" cy="250" r="25" fill="#99bbff" />

  <!--rings-->
  <circle cx="250" cy="250" r="50" fill="none" stroke-width="2" stroke="#ccc" />
  <circle cx="250" cy="250" r="75" fill="none" stroke-width="2" stroke="#ccc" />
  <circle cx="250" cy="250" r="100" fill="none" stroke-width="2" stroke="#ccc" />
  <circle cx="250" cy="250" r="125" fill="none" stroke-width="2" stroke="#ccc" />
  <circle cx="250" cy="250" r="150" fill="none" stroke-width="2" stroke="#ccc" />
  <circle cx="250" cy="250" r="175" fill="none" stroke-width="2" stroke="#ccc" />

  <!--ring1-->
  <circle cx="250" cy="200" r="5" fill="#444444" />
  <circle cx="250" cy="300" r="5" fill="#444444" />


  <!--ring2-->
  <circle cx="250" cy="175" r="5" fill="#444444" />
  <circle cx="250" cy="325" r="5" fill="#444444" />
  <circle cx="175" cy="250" r="5" fill="#444444" />
  <circle cx="325" cy="250" r="5" fill="#444444" />
  <g transform="rotate(45 250 250)">
    <circle cx="250" cy="175" r="5" fill="#444444" />
    <circle cx="250" cy="325" r="5" fill="#444444" />
    <circle cx="175" cy="250" r="5" fill="#444444" />
    <circle cx="325" cy="250" r="5" fill="#444444" />
  </g>

  <!--ring3-->
  <circle cx="250" cy="150" r="5" fill="#444444" />
  <circle cx="250" cy="350" r="5" fill="#444444" />
  <circle cx="150" cy="250" r="5" fill="#444444" />
  <circle cx="350" cy="250" r="5" fill="#444444" />
  <g transform="rotate(22.5 250 250)">
    <circle cx="250" cy="150" r="5" fill="#444444" />
    <circle cx="250" cy="350" r="5" fill="#444444" />
    <circle cx="150" cy="250" r="5" fill="#444444" />
    <circle cx="350" cy="250" r="5" fill="#444444" />
  </g>
  <g transform="rotate(45 250 250)">
    <circle cx="250" cy="150" r="5" fill="#444444" />
    <circle cx="250" cy="350" r="5" fill="#444444" />
    <circle cx="150" cy="250" r="5" fill="#444444" />
    <circle cx="350" cy="250" r="5" fill="#444444" />
  </g>
  <g transform="rotate(67.5 250 250)">
    <circle cx="250" cy="150" r="5" fill="#444444" />
    <circle cx="250" cy="350" r="5" fill="#444444" />
    <circle cx="150" cy="250" r="5" fill="#444444" />
    <circle cx="350" cy="250" r="5" fill="#444444" />
  </g>

  <!--ring4-->
  <circle cx="250" cy="125" r="5" fill="#444444" />
  <circle cx="250" cy="375" r="5" fill="#444444" />
  <circle cx="125" cy="250" r="5" fill="#444444" />
  <circle cx="375" cy="250" r="5" fill="#444444" />
  <g transform="rotate(22.5 250 250)">
    <circle cx="250" cy="125" r="5" fill="#444444" />
    <circle cx="250" cy="375" r="5" fill="#444444" />
    <circle cx="125" cy="250" r="5" fill="#444444" />
    <circle cx="375" cy="250" r="5" fill="#444444" />
  </g>
  <g transform="rotate(45 250 250)">
    <circle cx="250" cy="125" r="5" fill="#444444" />
    <circle cx="250" cy="375" r="5" fill="#444444" />
    <circle cx="125" cy="250" r="5" fill="#444444" />
    <circle cx="375" cy="250" r="5" fill="#444444" />
  </g>
  <g transform="rotate(67.5 250 250)">
    <circle cx="250" cy="125" r="5" fill="#444444" />
    <circle cx="250" cy="375" r="5" fill="#444444" />
    <circle cx="125" cy="250" r="5" fill="#444444" />
    <circle cx="375" cy="250" r="5" fill="#444444" />
  </g>

  <!--ring5-->
  <circle cx="250" cy="100" r="5" fill="#444444" />
  <circle cx="250" cy="400" r="5" fill="#444444" />
  <circle cx="100" cy="250" r="5" fill="#444444" />
  <circle cx="400" cy="250" r="5" fill="#444444" />
  <g transform="rotate(45 250 250)">
    <circle cx="250" cy="100" r="5" fill="#444444" />
    <circle cx="250" cy="400" r="5" fill="#444444" />
    <circle cx="100" cy="250" r="5" fill="#444444" />
    <circle cx="400" cy="250" r="5" fill="#444444" />
  </g>

  <!--ring6-->
  <circle cx="250" cy="75" r="5" fill="#444444" />

  <!--text-->
  <text x="227" y="263" font-family="Verdana" font-size="35">Cs</text>

</svg>
